<svg width="417" height="112" viewBox="0 0 417 112" fill="none" xmlns="http://www.w3.org/2000/svg">
<path d="M309.661 66.3149C309.661 66.3149 300.013 20.1767 344.226 4.22192C374.078 -6.55473 377.043 12.0333 364.85 13.8258C352.657 15.6403 310.369 18.0302 309.661 66.3149Z" fill="#0D9C4A"/>
<path d="M335.418 94.2397C335.418 94.2397 299.26 89.482 294.9 49.1858C291.271 15.9043 308.93 21.9233 307.536 32.2574C306.142 42.5915 298.153 84.1269 335.418 94.2397Z" fill="#F15A22"/>
<path d="M364.74 92.8028C364.74 92.8028 345.422 111.037 308.512 96.0779C283.196 85.8323 296.274 74.259 302.692 79.8576C309.087 85.4561 333.628 109.267 364.74 92.8028Z" fill="#F58220"/>
<path d="M375.982 79.9699C375.982 79.9699 372.685 101.213 352.039 109.556C337.212 115.553 337.898 106.06 342.103 106.303C348.144 106.679 368.79 102.276 375.982 79.9699Z" fill="#FCAF17"/>
<path d="M325.064 42.4608H343.32V47.9929H331.061V53.5251H342.391V59.0573H331.061V69.6569H325.064V42.4608Z" fill="black"/>
<path d="M353.452 42.4608H347.455V69.6569H353.452V42.4608Z" fill="black"/>
<path d="M376.848 49.5418C375.653 48.1256 373.927 47.3068 371.714 47.3068C367.178 47.3068 363.836 50.9801 363.836 56.0697C363.836 61.1372 367.178 64.8327 371.515 64.8327C373.927 64.8327 375.897 63.7484 377.136 61.9117L382.137 65.6514C379.88 68.8822 376.029 70.3648 372.29 70.3648C363.814 70.3648 357.618 64.7884 357.618 56.0697C357.618 47.351 363.814 41.7746 372.29 41.7746C375.321 41.7746 379.172 42.8147 381.473 45.7578L376.848 49.5418Z" fill="black"/>
<path d="M402.293 49.5418C401.098 48.1256 399.372 47.3068 397.137 47.3068C392.601 47.3068 389.259 50.9801 389.259 56.0697C389.259 61.1372 392.601 64.8327 396.938 64.8327C399.35 64.8327 401.32 63.7484 402.537 61.9117L407.538 65.6514C405.281 68.8822 401.43 70.3648 397.69 70.3648C389.215 70.3648 383.019 64.7884 383.019 56.0697C383.019 47.351 389.193 41.7746 397.69 41.7746C400.722 41.7746 404.572 42.8147 406.874 45.7578L402.293 49.5418Z" fill="black"/>
<path d="M416.655 42.4608H410.659V69.6569H416.655V42.4608Z" fill="black"/>
<path d="M260.701 2.64L260.895 109.608" stroke="black" stroke-width="3.18307"/>
<path d="M2.1039 98.8869H0.232788V82.7953H9.20312V84.4573H2.1039V90.3458H8.77386V92.0078H2.1039V98.8869Z" fill="black"/>
<path d="M29.4138 98.8869H20.4434V82.7953H29.4138V84.4573H22.3145V89.6414H28.9845V91.2924H22.3145V97.2139H29.4138V98.8869Z" fill="black"/>
<path d="M41.5566 98.8869V82.7953H43.4277V97.1919H50.527V98.8869H41.5566Z" fill="black"/>
<path d="M61.8333 98.8869V82.7953H63.7044V97.1919H70.8036V98.8869H61.8333Z" fill="black"/>
<path d="M96.0773 90.8191C96.0773 93.3946 95.4242 95.4198 94.1181 96.8947C92.8194 98.3696 91.0106 99.107 88.6919 99.107C86.3218 99.107 84.4911 98.3843 83.1996 96.9387C81.9155 95.4859 81.2735 93.4386 81.2735 90.7971C81.2735 88.1775 81.9192 86.1487 83.2106 84.7105C84.5021 83.2649 86.3365 82.5422 88.7139 82.5422C91.0253 82.5422 92.8304 83.2759 94.1291 84.7435C95.4279 86.211 96.0773 88.2362 96.0773 90.8191ZM83.2547 90.8191C83.2547 92.9984 83.7169 94.653 84.6415 95.783C85.5734 96.9057 86.9235 97.467 88.6919 97.467C90.475 97.467 91.8214 96.9057 92.7313 95.783C93.6412 94.6604 94.0961 93.0057 94.0961 90.8191C94.0961 88.6545 93.6412 87.0145 92.7313 85.8992C91.8288 84.7765 90.4896 84.2152 88.7139 84.2152C86.9309 84.2152 85.5734 84.7802 84.6415 85.9102C83.7169 87.0328 83.2547 88.6691 83.2547 90.8191Z" fill="black"/>
<path d="M122.287 98.8869H120.437L117.19 88.1115C117.036 87.6345 116.864 87.0328 116.673 86.3064C116.482 85.58 116.383 85.1434 116.376 84.9966C116.215 85.9652 115.958 87.0255 115.606 88.1775L112.458 98.8869H110.609L106.327 82.7953H108.308L110.851 92.7342C111.203 94.1284 111.46 95.3905 111.621 96.5205C111.819 95.1777 112.113 93.8642 112.502 92.5801L115.385 82.7953H117.367L120.393 92.6682C120.746 93.8055 121.043 95.0896 121.285 96.5205C121.424 95.4785 121.688 94.2091 122.077 92.7122L124.609 82.7953H126.59L122.287 98.8869Z" fill="black"/>
<path d="M146.757 94.6053C146.757 96.0215 146.243 97.1258 145.216 97.9183C144.188 98.7108 142.794 99.107 141.033 99.107C139.125 99.107 137.658 98.8612 136.631 98.3696V96.5645C137.291 96.8433 138.01 97.0635 138.788 97.2249C139.566 97.3863 140.336 97.467 141.099 97.467C142.347 97.467 143.286 97.2322 143.917 96.7626C144.548 96.2857 144.864 95.6253 144.864 94.7814C144.864 94.2238 144.75 93.7688 144.522 93.4166C144.302 93.0571 143.928 92.7269 143.4 92.426C142.879 92.1252 142.083 91.784 141.011 91.4024C139.514 90.8668 138.443 90.2321 137.797 89.4983C137.159 88.7645 136.84 87.807 136.84 86.6256C136.84 85.3855 137.306 84.3986 138.238 83.6648C139.169 82.9311 140.402 82.5642 141.936 82.5642C143.535 82.5642 145.007 82.8577 146.349 83.4447L145.766 85.0737C144.438 84.516 143.147 84.2372 141.892 84.2372C140.901 84.2372 140.127 84.45 139.569 84.8756C139.012 85.3011 138.733 85.8918 138.733 86.6476C138.733 87.2053 138.836 87.6639 139.041 88.0234C139.247 88.3756 139.591 88.7022 140.076 89.003C140.567 89.2965 141.316 89.623 142.321 89.9826C144.009 90.5843 145.168 91.23 145.799 91.9197C146.437 92.6095 146.757 93.5047 146.757 94.6053Z" fill="black"/>
<path d="M170.831 98.8869H168.96V91.3144H160.484V98.8869H158.613V82.7953H160.484V89.6414H168.96V82.7953H170.831V98.8869Z" fill="black"/>
<path d="M183.821 98.8869V82.7953H185.692V98.8869H183.821Z" fill="black"/>
<path d="M208.886 87.4841C208.886 89.1131 208.328 90.3678 207.213 91.2483C206.105 92.1215 204.516 92.5581 202.447 92.5581H200.554V98.8869H198.682V82.7953H202.854C206.875 82.7953 208.886 84.3583 208.886 87.4841ZM200.554 90.9512H202.238C203.896 90.9512 205.096 90.6833 205.837 90.1477C206.578 89.612 206.948 88.7535 206.948 87.5722C206.948 86.5082 206.6 85.7157 205.903 85.1948C205.206 84.6738 204.12 84.4133 202.645 84.4133H200.554V90.9512Z" fill="black"/>
<path d="M15.8519 68.5007H2.81226L20.0771 41.1599L3.65 14.8385H17.0539L26.6333 32.2769C26.6333 32.2769 29.2772 17.9142 36.4677 14.8385C41.1232 12.8471 44.8368 12.7173 49.4345 14.8385C60.3086 19.8553 33.2909 28.7557 33.0075 40.723C32.7042 53.5278 62.1351 63.233 50.4544 68.5007C45.6052 70.6875 41.7166 70.6072 36.832 68.5007C29.3247 65.263 26.6333 50.2249 26.6333 50.2249L15.8519 68.5007Z" fill="url(#paint0_linear_7_80)"/>
<path d="M68.2656 24.1584V38.5751C68.2656 38.5751 78.4521 38.5751 80.9774 38.5751C83.5028 38.5751 85.3968 38.2838 86.6595 37.7013C88.8935 36.682 90.0105 34.6675 90.0105 31.658C90.0105 28.4057 89.1706 26.6499 86.7688 25.1049C84.9479 23.9336 83.455 24.4185 81.3052 24.1584C76.2499 23.5466 68.2656 24.1584 68.2656 24.1584ZM83.6364 14.8385C87.4001 14.9113 90.2898 15.3724 92.3052 16.2219C94.3449 17.0714 96.069 18.3213 97.4774 19.9717C98.6429 21.3308 99.5656 22.8356 100.246 24.486C100.925 26.1364 101.265 28.0174 101.265 30.1289C101.265 32.6773 100.622 35.1893 99.335 37.6649C98.048 40.1163 95.9233 41.8516 92.9608 42.871C95.4376 43.8661 97.186 45.2859 98.2058 47.1304C99.25 48.9507 99.772 51.7418 99.772 55.5038V59.108C99.772 61.5593 99.8692 63.2218 100.063 64.0956C100.355 65.479 101.035 66.4983 102.103 67.1536C103.172 67.809 102.16 67.9777 102.103 68.5007C101.58 73.2919 90.4924 71.0785 89.7555 68.5007C89.0187 65.9229 89.1728 66.3527 89.0271 65.6246C88.7357 64.1198 88.5778 62.5786 88.5536 61.0011L88.4807 56.0135C88.4321 52.5913 87.8008 50.3099 86.5867 49.1692C85.3968 48.0285 83.1507 47.4581 79.8483 47.4581H68.2656C68.2656 47.4581 75.5577 64.7051 68.2656 68.5007C64.4681 70.4773 57.3021 68.5007 57.3021 68.5007V14.8385H83.6364Z" fill="url(#paint1_linear_7_80)"/>
<path d="M134.702 60.4914C139.146 60.4914 142.667 58.8531 145.265 55.5766C147.888 52.3001 149.199 47.6401 149.199 41.5968C149.199 35.5777 147.888 30.9298 145.265 27.6533C142.667 24.3525 139.146 22.7021 134.702 22.7021C130.259 22.7021 126.713 24.3404 124.067 27.6169C121.42 30.8934 120.096 35.5534 120.096 41.5968C120.096 47.6401 121.42 52.3001 124.067 55.5766C126.713 58.8531 130.259 60.4914 134.702 60.4914ZM160.417 41.5968C160.417 51.2322 157.71 58.6104 152.295 63.7315C148.24 67.906 142.376 69.9933 134.702 69.9933C127.029 69.9933 121.165 67.906 117.11 63.7315C111.67 58.6104 108.951 51.2322 108.951 41.5968C108.951 31.7672 111.67 24.3889 117.11 19.462C121.165 15.2875 127.029 13.2002 134.702 13.2002C142.376 13.2002 148.24 15.2875 152.295 19.462C157.71 24.3889 160.417 31.7672 160.417 41.5968Z" fill="url(#paint2_linear_7_80)"/>
<path d="M177.136 51.936C177.573 55.0865 178.144 56.2198 179.139 57.4333C180.96 59.6419 184.081 60.7462 188.5 60.7462C191.147 60.7462 193.296 60.455 194.947 59.8725C198.08 58.756 199.646 56.6809 199.646 53.6471C199.646 51.8753 198.869 50.504 197.315 49.5332C195.761 48.5867 193.32 47.7493 189.993 47.0212L184.311 45.747C178.726 44.485 174.865 43.1137 172.729 41.6332C169.111 39.1576 167.302 35.2864 167.302 30.0197C167.302 25.2141 169.05 21.2216 172.547 18.0422C176.043 14.8627 181.179 13.273 187.954 13.273C193.612 13.273 198.432 14.7778 202.414 17.7873C206.421 20.7726 208.521 25.1171 208.715 30.8206C208.909 36.5242 198.553 35.0801 197.934 30.8206C197.315 26.5611 196.331 25.2991 193.709 23.9399C191.96 23.0419 189.787 22.5929 187.189 22.5929C184.299 22.5929 181.992 23.1754 180.268 24.3404C178.544 25.5054 177.682 27.1315 177.682 29.2188C177.682 31.1361 178.532 32.5681 180.232 33.5147C181.325 34.1457 183.656 34.8859 187.225 35.7354L196.477 37.9562C200.532 38.927 203.592 40.2255 205.656 41.8516C208.861 44.3757 210.464 48.0285 210.464 52.8098C210.464 57.7124 208.582 61.7899 204.818 65.0421C201.078 68.2701 195.785 69.8841 188.937 69.8841C181.944 69.8841 176.444 68.2944 172.437 65.1149C168.431 61.9112 166.427 57.5182 166.427 51.936C166.427 46.3538 176.699 48.7855 177.136 51.936Z" fill="url(#paint3_linear_7_80)"/>
<defs>
<linearGradient id="paint0_linear_7_80" x1="106.638" y1="13.2002" x2="106.638" y2="71.3238" gradientUnits="userSpaceOnUse">
<stop stop-color="#5429FD"/>
<stop offset="0.508333" stop-color="#B85FE8"/>
<stop offset="1" stop-color="#FDAFC4"/>
</linearGradient>
<linearGradient id="paint1_linear_7_80" x1="106.638" y1="13.2002" x2="106.638" y2="71.3238" gradientUnits="userSpaceOnUse">
<stop stop-color="#5429FD"/>
<stop offset="0.508333" stop-color="#B85FE8"/>
<stop offset="1" stop-color="#FDAFC4"/>
</linearGradient>
<linearGradient id="paint2_linear_7_80" x1="106.638" y1="13.2002" x2="106.638" y2="71.3238" gradientUnits="userSpaceOnUse">
<stop stop-color="#5429FD"/>
<stop offset="0.508333" stop-color="#B85FE8"/>
<stop offset="1" stop-color="#FDAFC4"/>
</linearGradient>
<linearGradient id="paint3_linear_7_80" x1="106.638" y1="13.2002" x2="106.638" y2="71.3238" gradientUnits="userSpaceOnUse">
<stop stop-color="#5429FD"/>
<stop offset="0.508333" stop-color="#B85FE8"/>
<stop offset="1" stop-color="#FDAFC4"/>
</linearGradient>
</defs>
</svg>
